HIERARCHY
ROOT SpineBase
{
  OFFSET 0.000000 0.000000 0.000000
  CHANNELS 6 Xposition Yposition Zposition Zrotation Xrotation Yrotation
  JOINT SpineMid
  {
    OFFSET 0.000000 34.293229 0.000000
    CHANNELS 3 Zrotation Xrotation Yrotation
    JOINT SpineShoulder
    {
      OFFSET -0.377635 25.523442 -0.839444
      CHANNELS 3 Zrotation Xrotation Yrotation
      JOINT Neck
      {
        OFFSET -0.272672 8.463209 -0.622120
        CHANNELS 3 Zrotation Xrotation Yrotation
        JOINT Head
        {
          OFFSET -0.331050 11.409932 1.871256
          CHANNELS 3 Zrotation Xrotation Yrotation
          End Site
          {
            OFFSET 0 0 0
          }
        }
      }
      JOINT ShoulderLeft
      {
        OFFSET -14.518706 -6.682327 -8.031071
        CHANNELS 3 Zrotation Xrotation Yrotation
        JOINT ElbowLeft
        {
          OFFSET -6.665927 -28.423351 0.969338
          CHANNELS 3 Zrotation Xrotation Yrotation
          JOINT WristLeft
          {
            OFFSET -7.330338 -21.860691 4.976037
            CHANNELS 3 Zrotation Xrotation Yrotation
            JOINT HandLeft
            {
              OFFSET -0.861893 -6.930540 1.219117
              CHANNELS 3 Zrotation Xrotation Yrotation
              JOINT HandTipLeft
              {
                OFFSET 0.774957 -7.417175 -1.156612
                CHANNELS 3 Zrotation Xrotation Yrotation
                End Site
                {
                  OFFSET 0 0 0
                }
              }
              JOINT ThumbLeft
              {
                OFFSET 2.729433 1.689174 -0.676529
                CHANNELS 3 Zrotation Xrotation Yrotation
                End Site
                {
                  OFFSET 0 0 0
                }
              }
            }
          }
        }
      }
      JOINT ShoulderRight
      {
        OFFSET 13.876370 -4.727689 -3.436470
        CHANNELS 3 Zrotation Xrotation Yrotation
        JOINT ElbowRight
        {
          OFFSET -1.796880 -28.715878 -3.947100
          CHANNELS 3 Zrotation Xrotation Yrotation
          JOINT WristRight
          {
            OFFSET 2.613878 -22.763045 5.190923
            CHANNELS 3 Zrotation Xrotation Yrotation
            JOINT HandRight
            {
              OFFSET 0.475534 3.573018 -4.959770
              CHANNELS 3 Zrotation Xrotation Yrotation
              JOINT HandTipRight
              {
                OFFSET -0.635045 -7.968020 1.308484
                CHANNELS 3 Zrotation Xrotation Yrotation
                End Site
                {
                  OFFSET 0 0 0
                }
              }
              JOINT ThumbRight
              {
                OFFSET -2.134251 2.366809 -4.357978
                CHANNELS 3 Zrotation Xrotation Yrotation
                End Site
                {
                  OFFSET 0 0 0
                }
              }
            }
          }
        }
      }
    }
  }
  JOINT HipLeft
  {
    OFFSET -7.361783 1.676185 -4.340313
    CHANNELS 3 Zrotation Xrotation Yrotation
    JOINT KneeLeft
    {
      OFFSET 2.852372 -38.493164 -2.038413
      CHANNELS 3 Zrotation Xrotation Yrotation
      JOINT AnkleLeft
      {
        OFFSET -1.229739 -29.536433 -2.683714
        CHANNELS 3 Zrotation Xrotation Yrotation
        JOINT FootLeft
        {
          OFFSET 0.589015 -3.040775 -12.635492
          CHANNELS 3 Zrotation Xrotation Yrotation
          End Site
          {
            OFFSET 0 0 0
          }
        }
      }
    }
  }
  JOINT HipRight
  {
    OFFSET 4.505439 1.578113 -2.293418
    CHANNELS 3 Zrotation Xrotation Yrotation
    JOINT KneeRight
    {
      OFFSET 4.802820 -38.151289 -1.794086
      CHANNELS 3 Zrotation Xrotation Yrotation
      JOINT AnkleRight
      {
        OFFSET 1.926037 -28.939133 -1.656087
        CHANNELS 3 Zrotation Xrotation Yrotation
        JOINT FootRight
        {
          OFFSET 0.386438 -2.866879 -13.094043
          CHANNELS 3 Zrotation Xrotation Yrotation
          End Site
          {
            OFFSET 0 0 0
          }
        }
      }
    }
  }
}
MOTION
Frames: 13
Frame Time: 0.033333
99.927305 73.436709 235.931919 -0.000000 0.000000 -9.786258 -0.000000 0.000000 9.786258 -0.000000 0.000000 0.000000 -0.000000 0.000000 0.000000 0.000000 0.000000 0.000000 -0.000000 0.000000 0.000000 -0.000000 0.000000 0.000000 -0.000000 0.000000 0.000000 -0.000000 0.000000 0.000000 0.000000 0.000000 0.000000 0.000000 0.000000 0.000000 -0.000000 0.000000 0.000000 -0.000000 0.000000 0.000000 -0.000000 0.000000 0.000000 -0.000000 0.000000 0.000000 0.000000 0.000000 0.000000 0.000000 0.000000 0.000000 -0.000000 0.000000 9.786258 -0.000000 0.000000 0.000000 -0.000000 0.000000 0.000000 0.000000 0.000000 0.000000 -0.000000 0.000000 9.786258 -0.000000 0.000000 0.000000 -0.000000 0.000000 0.000000 0.000000 0.000000 0.000000
99.861797 73.431920 236.008406 -0.017009 -0.018552 -9.794319 0.013605 0.021175 9.794314 -0.000000 0.000000 0.000000 -0.000000 0.000000 0.000000 0.000000 0.000000 0.000000 -0.000000 0.000000 0.000000 1.910571 0.108795 0.398954 2.309224 0.536315 0.244707 -7.079851 0.053678 -0.186211 0.000000 0.000000 0.000000 0.000000 0.000000 0.000000 -0.000000 0.000000 0.000000 -0.000000 0.000000 0.000000 -0.179799 -3.977314 0.261090 0.198384 3.976431 -0.274220 0.000000 0.000000 0.000000 0.000000 0.000000 0.000000 0.013605 0.021175 9.794314 -0.000000 0.000000 0.000000 0.328451 -7.349416 -3.773181 0.000000 0.000000 0.000000 0.013605 0.021175 9.794314 -0.000000 0.000000 0.000000 -0.000000 0.000000 0.000000 0.000000 0.000000 0.000000
99.800195 73.425264 236.082764 -0.035310 -0.033190 -9.818579 0.029133 0.038725 9.818559 -0.000000 0.000000 0.000000 -0.000000 0.000000 0.000000 0.000000 0.000000 0.000000 1.357482 -0.297389 0.119887 2.195288 0.527885 0.599225 5.016498 1.048024 0.546492 -13.830797 0.171007 -0.534736 0.000000 0.000000 0.000000 0.000000 0.000000 0.000000 -0.000000 0.000000 0.000000 -0.000000 0.000000 0.000000 0.276706 -8.408482 1.384624 0.885400 7.634422 -1.273487 0.000000 0.000000 0.000000 0.000000 0.000000 0.000000 0.029133 0.038725 9.818559 -0.000000 0.000000 0.000000 0.128629 -15.261872 -7.859690 0.000000 0.000000 0.000000 0.773164 0.426627 9.810103 -1.730632 -0.116774 0.063187 0.931222 -0.139694 -0.061425 0.000000 0.000000 0.000000
99.742497 73.416742 236.154993 -0.054903 -0.043913 -9.859095 0.046573 0.052665 9.859053 -0.000000 0.000000 0.000000 -0.000000 0.000000 0.000000 0.000000 0.000000 0.000000 1.932840 -0.373365 0.160401 2.989076 0.737970 0.814629 7.934767 1.504832 0.886929 -20.008455 0.375727 -0.995813 0.000000 0.000000 0.000000 0.000000 0.000000 0.000000 -0.000000 0.000000 0.000000 -0.000000 0.000000 0.000000 1.584606 -13.076417 3.567057 1.368683 11.362393 -3.257286 0.000000 0.000000 0.000000 0.000000 0.000000 0.000000 0.046573 0.052665 9.859053 -0.000000 0.000000 0.000000 -0.664707 -22.942639 -12.018199 0.000000 0.000000 0.000000 1.077630 0.593994 9.846038 -2.395675 -0.148074 0.085695 1.286888 -0.210841 -0.085257 0.000000 0.000000 0.000000
99.688704 73.406353 236.225092 -0.075785 -0.050720 -9.915906 0.065919 0.063013 9.915836 -0.000000 0.000000 0.000000 -0.000000 0.000000 0.000000 0.000000 0.000000 0.000000 2.441472 -0.401380 0.186873 3.577813 0.907242 0.980241 10.833306 1.868895 1.248191 -25.346130 0.670860 -1.504340 0.000000 0.000000 0.000000 0.000000 0.000000 0.000000 -0.000000 0.000000 0.000000 -0.000000 0.000000 0.000000 3.914841 -17.618375 6.935998 1.918553 14.599810 -6.209158 0.000000 0.000000 0.000000 0.000000 0.000000 0.000000 0.065919 0.063013 9.915836 -0.000000 0.000000 0.000000 -1.905980 -29.525205 -15.875637 0.000000 0.000000 0.000000 1.333145 0.734021 9.898652 -2.928603 -0.163512 0.103053 1.564324 -0.282368 -0.104384 0.000000 0.000000 0.000000
99.638816 73.394097 236.293061 -0.097955 -0.053612 -9.989028 0.087171 0.069791 9.988929 -0.000000 0.000000 0.000000 -0.000000 0.000000 0.000000 0.000000 0.000000 0.000000 2.884570 -0.381368 0.198587 3.964744 1.032635 1.100683 13.466588 2.098572 1.615364 -29.580319 1.037653 -1.994132 0.000000 0.000000 0.000000 0.000000 0.000000 0.000000 -0.000000 0.000000 0.000000 -0.000000 0.000000 0.000000 7.293493 -21.571116 11.454570 2.544326 16.931030 -9.972326 0.000000 0.000000 0.000000 0.000000 0.000000 0.000000 0.087171 0.069791 9.988929 -0.000000 0.000000 0.000000 -3.234692 -34.387456 -18.966108 0.000000 0.000000 0.000000 1.542749 0.848421 9.968290 -3.329670 -0.164368 0.115703 1.760481 -0.353917 -0.118771 0.000000 0.000000 0.000000
99.589136 73.382183 236.369811 -0.127062 -0.052938 -10.159881 0.115732 0.074521 10.159747 -0.000000 0.000000 0.000000 -0.000000 0.000000 0.000000 0.000000 0.000000 0.000000 3.311437 -0.195518 0.165581 4.048709 0.999756 1.203689 16.531026 1.745326 2.285665 -33.415691 2.472443 -2.334239 0.000000 0.000000 0.000000 0.000000 0.000000 0.000000 -0.000000 0.000000 0.000000 -0.000000 0.000000 0.000000 12.482670 -24.338920 18.052680 4.840837 16.654944 -15.349121 0.000000 0.000000 0.000000 0.000000 0.000000 0.000000 0.115732 0.074521 10.159747 -0.000000 0.000000 0.000000 -3.446474 -35.043616 -19.416492 0.000000 0.000000 0.000000 1.695229 0.963917 10.140117 -3.652031 -0.195660 0.120856 1.939635 -0.405619 -0.131018 0.000000 0.000000 0.000000
99.540623 73.364387 236.444898 -0.162097 -0.052478 -10.284201 0.150124 0.080574 10.284021 -0.000000 0.000000 0.000000 -0.000000 0.000000 0.000000 0.000000 0.000000 0.000000 3.723034 -0.056510 0.143192 3.879341 1.047123 1.216802 18.954327 1.575154 2.846083 -35.275087 2.813794 -2.879726 0.000000 0.000000 0.000000 0.000000 0.000000 0.000000 -0.000000 0.000000 0.000000 -0.000000 0.000000 0.000000 17.669179 -25.992948 24.512545 3.080731 16.956201 -19.639255 0.000000 0.000000 0.000000 0.000000 0.000000 0.000000 0.795472 0.673937 10.275268 -0.740862 -0.468686 0.001474 -2.381497 -31.444072 -17.013853 0.000000 0.000000 0.000000 1.804210 0.921667 10.253027 -3.501147 0.087763 0.141624 1.722192 -0.624864 -0.130669 0.000000 0.000000 0.000000
99.500366 73.346154 236.500417 -0.184878 -0.044291 -10.313789 0.173962 0.076675 10.313602 -0.000000 0.000000 0.000000 -0.000000 0.000000 0.000000 0.000000 0.000000 0.000000 3.977250 0.094767 0.111085 3.614197 1.025527 1.204477 20.051481 1.058441 3.303248 -35.336100 3.328537 -3.113355 0.000000 0.000000 0.000000 0.000000 0.000000 0.000000 -0.000000 0.000000 0.000000 -0.000000 0.000000 0.000000 21.896972 -26.138886 29.747189 2.092703 15.755105 -22.996057 0.000000 0.000000 0.000000 0.000000 0.000000 0.000000 0.943643 0.717321 10.298601 -0.871843 -0.492656 0.005919 -2.655607 -32.615460 -16.975616 0.000000 0.000000 0.000000 1.821701 1.084852 10.299934 -3.560205 -0.255845 0.101454 1.757778 -0.444266 -0.123254 0.000000 0.000000 0.000000
99.474338 73.327158 236.530296 -0.198980 -0.023588 -10.345447 0.191509 0.058937 10.345308 -0.000000 0.000000 0.000000 0.318103 0.748497 -0.032493 0.000000 0.000000 0.000000 4.007391 0.154572 0.095855 3.551214 1.050625 1.181622 18.483648 1.054280 3.038737 -33.283271 3.143943 -2.955195 0.000000 0.000000 0.000000 0.000000 0.000000 0.000000 -0.000000 0.000000 0.000000 -0.000000 0.000000 0.000000 23.755414 -24.838413 32.100378 2.150924 13.541280 -24.677183 0.000000 0.000000 0.000000 0.000000 0.000000 0.000000 1.074686 0.717150 10.323306 -0.986865 -0.489204 0.011807 -3.044963 -34.264407 -16.916820 0.000000 0.000000 0.000000 1.957281 1.064768 10.322504 -3.605426 -0.170662 0.111892 1.686850 -0.505369 -0.122645 0.000000 0.000000 0.000000
99.440475 73.316752 236.551567 -0.231683 -0.014298 -10.328765 0.225365 0.055606 10.328627 -0.000000 0.000000 0.000000 0.453493 0.779836 -0.054766 0.000000 0.000000 0.000000 3.911714 0.326803 0.046025 3.475978 0.936455 1.180813 14.610283 0.526179 2.503424 -28.176390 2.729645 -2.469393 0.000000 0.000000 0.000000 0.000000 0.000000 0.000000 -0.000000 0.000000 0.000000 -0.000000 0.000000 0.000000 27.198240 -27.739369 36.202953 4.982760 14.821079 -27.898961 0.000000 0.000000 0.000000 0.000000 0.000000 0.000000 1.243513 0.744293 10.298645 -1.870632 0.000609 0.061843 -2.744344 -36.201823 -17.459492 0.000000 0.000000 0.000000 2.108748 1.063481 10.296988 -3.750363 -0.092053 0.126232 1.715770 -0.566215 -0.127310 0.000000 0.000000 0.000000
99.398603 73.307665 236.549064 -0.265926 -0.005213 -10.165494 0.260831 0.052064 10.165363 -0.000000 0.000000 0.000000 0.661773 0.679620 -0.092634 0.000000 0.000000 0.000000 3.715918 0.441831 0.008887 3.441911 0.861897 1.157354 10.312137 0.886042 1.603435 -22.949398 1.092191 -2.002712 0.000000 0.000000 0.000000 0.000000 0.000000 0.000000 -0.000000 0.000000 0.000000 -0.000000 0.000000 0.000000 27.761587 -28.639783 36.838817 4.457075 15.580775 -28.029840 0.000000 0.000000 0.000000 0.000000 0.000000 0.000000 1.398075 0.794977 10.130085 -2.188733 -0.062400 0.081900 -2.957725 -37.058969 -19.122910 0.000000 0.000000 0.000000 2.095872 1.110517 10.143453 -3.608954 -0.234632 0.102094 1.615116 -0.486528 -0.117875 0.000000 0.000000 0.000000
99.367834 73.300360 236.560753 -0.294098 0.005293 -10.091676 0.290475 0.046321 10.091572 -0.000000 0.000000 0.000000 0.819032 0.727745 -0.118264 0.000000 0.000000 0.000000 3.466792 0.593365 -0.039134 3.230515 0.771650 1.085203 5.568517 0.569883 0.847963 -18.525795 1.626800 -0.810830 0.000000 0.000000 0.000000 0.000000 0.000000 0.000000 -0.000000 0.000000 0.000000 -0.000000 0.000000 0.000000 26.304578 -27.973053 35.095505 2.120162 15.521510 -26.198533 0.000000 0.000000 0.000000 0.000000 0.000000 0.000000 1.530030 0.833620 10.051509 -2.404182 -0.177143 0.096297 -2.935225 -36.991751 -19.843647 0.000000 0.000000 0.000000 2.017135 1.168066 10.085043 -3.395621 -0.396368 0.072074 1.498423 -0.407190 -0.107459 0.000000 0.000000 0.000000
